<?xml version="1.0" encoding="UTF-8" standalone="no"?>
<svg
   xmlns:dc="http://purl.org/dc/elements/1.1/"
   xmlns:cc="http://creativecommons.org/ns#"
   xmlns:rdf="http://www.w3.org/1999/02/22-rdf-syntax-ns#"
   xmlns:svg="http://www.w3.org/2000/svg"
   xmlns="http://www.w3.org/2000/svg"
   xmlns:sodipodi="http://sodipodi.sourceforge.net/DTD/sodipodi-0.dtd"
   xmlns:inkscape="http://www.inkscape.org/namespaces/inkscape"
   width="800"
   height="800"
   viewBox="0 0 211.66666 211.66667"
   version="1.1"
   id="svg8"
   sodipodi:docname="Wakarana.svg"
   inkscape:version="1.0.1 (3bc2e813f5, 2020-09-07)"
   inkscape:export-filename="/home/kazuma/デスクトップ/HDD_E/イラスト/2020/サイト用/Wakarana.png"
   inkscape:export-xdpi="240"
   inkscape:export-ydpi="240">
  <defs
     id="defs2" />
  <sodipodi:namedview
     id="base"
     pagecolor="#ffffff"
     bordercolor="#666666"
     borderopacity="1.0"
     inkscape:pageopacity="0.0"
     inkscape:pageshadow="2"
     inkscape:zoom="0.98994949"
     inkscape:cx="275.33493"
     inkscape:cy="404.07778"
     inkscape:document-units="px"
     inkscape:current-layer="layer1"
     inkscape:document-rotation="0"
     showgrid="false"
     units="px"
     fit-margin-top="0"
     fit-margin-left="0"
     fit-margin-right="0"
     fit-margin-bottom="0"
     inkscape:window-width="1920"
     inkscape:window-height="1006"
     inkscape:window-x="0"
     inkscape:window-y="0"
     inkscape:window-maximized="1" />
  <metadata
     id="metadata5">
    <rdf:RDF>
      <cc:Work
         rdf:about="">
        <dc:format>image/svg+xml</dc:format>
        <dc:type
           rdf:resource="http://purl.org/dc/dcmitype/StillImage" />
        <dc:title></dc:title>
      </cc:Work>
    </rdf:RDF>
  </metadata>
  <g
     inkscape:label="レイヤー 1"
     inkscape:groupmode="layer"
     id="layer1">
    <path
       style="fill:#222222;fill-opacity:1;stroke:none;stroke-width:0.264583px;stroke-linecap:butt;stroke-linejoin:miter;stroke-opacity:1"
       d="m 92.604167,0 -79.375,79.375 79.375,79.375 79.375003,-79.375 z"
       id="path833"
       sodipodi:nodetypes="ccccc" />
    <path
       style="fill:#ff3333;fill-opacity:1;stroke:none;stroke-width:0.264583px;stroke-linecap:butt;stroke-linejoin:miter;stroke-opacity:1"
       d="M 92.604166,158.75 145.52084,105.83333 V 158.75 Z"
       id="path837"
       sodipodi:nodetypes="cccc" />
    <path
       style="fill:#ffcc33;fill-opacity:1;stroke:none;stroke-width:0.264583px;stroke-linecap:butt;stroke-linejoin:miter;stroke-opacity:1"
       d="M 145.52084,105.83331 198.43751,158.75 h -52.91667 z"
       id="path837-3"
       sodipodi:nodetypes="cccc" />
    <path
       style="fill:#33cc33;fill-opacity:1;stroke:none;stroke-width:0.264583px;stroke-linecap:butt;stroke-linejoin:miter;stroke-opacity:1"
       d="m 198.43751,158.75 -52.91667,52.91667 V 158.75 Z"
       id="path837-6"
       sodipodi:nodetypes="cccc" />
    <path
       style="fill:#3366ff;fill-opacity:1;stroke:none;stroke-width:0.264583px;stroke-linecap:butt;stroke-linejoin:miter;stroke-opacity:1"
       d="M 145.52084,211.66669 92.604167,158.75 h 52.916673 z"
       id="path837-7"
       sodipodi:nodetypes="cccc" />
    <path
       id="path877-6"
       style="fill:#000000;fill-opacity:0.5;stroke:none;stroke-width:4.7625"
       d="M 55.903565,63.841048 A 26.458334,26.458334 0 0 0 48.154167,82.549984 26.458334,26.458334 0 0 0 74.612501,109.00832 26.458334,26.458334 0 0 0 101.07084,82.549984 H 90.487506 a 15.875001,15.875001 0 0 1 -15.875005,15.875 15.875001,15.875001 0 0 1 -15.875,-15.875 15.875001,15.875001 0 0 1 4.649845,-11.225155 z" />
    <path
       id="path877"
       style="fill:#ffffff;fill-opacity:1;stroke:none;stroke-width:4.7625"
       d="M 52.728565,60.666048 A 26.458334,26.458334 0 0 0 44.979167,79.374984 26.458334,26.458334 0 0 0 71.437501,105.83332 26.458334,26.458334 0 0 0 97.895836,79.374984 h -10.58333 a 15.875001,15.875001 0 0 1 -15.875005,15.875 15.875001,15.875001 0 0 1 -15.875,-15.875 15.875001,15.875001 0 0 1 4.649845,-11.225155 z" />
    <path
       id="path877-5-2"
       style="fill:#000000;fill-opacity:0.5;stroke:none;stroke-width:4.7625"
       d="m 135.65478,63.841048 a 26.458334,26.458334 0 0 1 7.7494,18.708936 26.458334,26.458334 0 0 1 -26.45834,26.458336 26.458334,26.458334 0 0 1 -26.458334,-26.458336 h 10.583334 a 15.875001,15.875001 0 0 0 15.875,15.875 15.875001,15.875001 0 0 0 15.875,-15.875 15.875001,15.875001 0 0 0 -4.64984,-11.225155 z" />
    <path
       id="path877-5"
       style="fill:#ffffff;fill-opacity:1;stroke:none;stroke-width:4.7625"
       d="m 132.47978,60.666048 a 26.458334,26.458334 0 0 1 7.7494,18.708936 26.458334,26.458334 0 0 1 -26.45834,26.458336 26.458334,26.458334 0 0 1 -26.458334,-26.458336 h 10.58333 a 15.875001,15.875001 0 0 0 15.875004,15.875 15.875001,15.875001 0 0 0 15.875,-15.875 15.875001,15.875001 0 0 0 -4.64984,-11.225155 z" />
    <path
       id="path947-1"
       style="fill:#000000;fill-opacity:0.25;stroke:none;stroke-width:4.28625"
       d="m 147.59202,137.0542 a 23.812501,23.812501 0 0 0 -23.76702,23.8125 23.812501,23.812501 0 0 0 23.8125,23.8125 23.812501,23.812501 0 0 0 13.22917,-4.01319 v 4.01319 H 171.45 v -23.76702 a 23.812501,23.812501 0 0 0 0,-0.0455 23.812501,23.812501 0 0 0 -23.8125,-23.8125 23.812501,23.812501 0 0 0 -0.0455,0 z m 0.0315,10.58334 a 13.229168,13.229168 0 0 1 0.0139,0 13.229168,13.229168 0 0 1 13.22917,13.22916 13.229168,13.229168 0 0 1 -13.22917,13.22917 13.229168,13.229168 0 0 1 -13.22917,-13.22917 13.229168,13.229168 0 0 1 13.21522,-13.22916 z" />
    <path
       id="path947"
       style="fill:#222222;fill-opacity:1;stroke:none;stroke-width:4.28625"
       d="m 145.47536,134.93753 a 23.812501,23.812501 0 0 0 -23.76702,23.8125 23.812501,23.812501 0 0 0 23.8125,23.8125 23.812501,23.812501 0 0 0 13.22917,-4.01319 v 4.01319 h 10.58333 v -23.76702 a 23.812501,23.812501 0 0 0 0,-0.0455 23.812501,23.812501 0 0 0 -23.8125,-23.8125 23.812501,23.812501 0 0 0 -0.0455,0 z m 0.0315,10.58334 a 13.229168,13.229168 0 0 1 0.0139,0 13.229168,13.229168 0 0 1 13.22917,13.22916 13.229168,13.229168 0 0 1 -13.22917,13.22917 13.229168,13.229168 0 0 1 -13.22917,-13.22917 13.229168,13.229168 0 0 1 13.21522,-13.22916 z" />
  </g>
</svg>
